<svg width="103" height="31" viewBox="0 0 103 31" fill="none" xmlns="http://www.w3.org/2000/svg">
<path d="M19.0777 7.15356C15.1269 7.15356 7.21325 3.9509 7.21325 0H7.15475C7.15475 3.16212 8.41086 6.19472 10.6468 8.43071C12.8827 10.6667 15.9152 11.9229 19.0774 11.9231C20.9746 11.9231 22.7942 12.6767 24.1359 14.0183C25.4775 15.3599 26.2312 17.1795 26.2312 19.0768C26.2316 20.974 25.4783 22.7939 24.1369 24.1357C22.7956 25.4777 20.9761 26.2317 19.0788 26.2321C17.1814 26.2324 15.3617 25.479 14.0198 24.1377C12.6779 22.7963 11.9239 20.9769 11.9235 19.0796C11.9235 17.5138 11.615 15.9634 11.0158 14.5168C10.4165 13.0703 9.53826 11.7559 8.43106 10.6487C7.32385 9.54162 6.00944 8.66341 4.56282 8.06426C3.11623 7.46512 1.56577 7.15678 0 7.15684V7.21487C3.95016 7.21487 7.15283 15.1252 7.1543 19.0766H7.15356C7.15354 21.4349 7.85277 23.74 9.16285 25.7008C10.4729 27.6615 12.335 29.1898 14.5137 30.0922C16.6923 30.9948 19.0896 31.231 21.4025 30.7709C23.7153 30.311 25.8398 29.1755 27.5074 27.5082C29.1749 25.8407 30.3105 23.7163 30.7708 21.4034C31.231 19.0906 30.9949 16.6933 30.0926 14.5146C29.1904 12.3359 27.6623 10.4737 25.7017 9.16343C23.7409 7.85318 21.4357 7.15374 19.0777 7.15356Z" fill="white"/>
<path d="M42.6711 29.2975C42.6711 29.6675 43.0041 30.0005 43.3741 30.0005H45.2241C45.6681 30.0005 46.2601 29.8525 46.2601 29.2975V18.2715H53.3271V29.2975C53.3271 29.6675 53.6601 30.0005 54.0301 30.0005H56.1391C56.5091 30.0005 56.8421 29.6675 56.8421 29.2975V15.9035C56.8421 15.5335 56.5091 15.2005 56.1391 15.2005H46.2601V10.6125C46.2601 8.05947 47.8141 6.98647 49.3311 6.98647C50.9591 6.98647 52.8461 7.98547 53.1791 8.17047C53.5861 8.39247 53.9191 8.42947 54.1411 7.98547L55.0661 6.32047C55.2511 6.02447 55.1771 5.58047 54.8811 5.39547C54.1041 4.91447 51.8101 3.73047 49.3311 3.73047C45.6681 3.73047 42.6711 6.20947 42.6711 10.6125V15.2005H40.9321C40.5251 15.2005 40.2291 15.4965 40.2291 15.9035V17.5685C40.2291 17.9385 40.5251 18.2715 40.9321 18.2715H42.6711V29.2975Z" fill="white"/>
<path d="M61.6501 29.2975C61.6501 29.6675 61.9831 30.0005 62.3531 30.0005H64.1291C64.7211 30.0005 65.1281 29.9265 65.1281 29.2975V19.8995C65.2761 19.6405 66.3121 18.0865 68.4581 18.0865C68.9391 18.0865 69.4941 18.2345 69.7161 18.3455C70.0491 18.4935 70.4191 18.4195 70.6041 18.0125L71.4921 16.1995C71.8991 15.2005 70.1971 14.8305 68.7911 14.8305C66.0901 14.8305 64.7211 16.6065 64.4621 16.9765L64.0551 15.7185C63.9811 15.4225 63.6851 15.2005 63.4261 15.2005H62.3531C61.9831 15.2005 61.6501 15.5335 61.6501 15.9035V29.2975Z" fill="white"/>
<path d="M72.8984 22.6005C72.8984 26.8555 75.8584 30.3705 80.3354 30.3705C82.8144 30.3705 84.7384 29.4455 85.8114 28.5205C86.2554 28.1505 86.1444 27.8545 85.8854 27.5585L84.8494 26.1525C84.5534 25.7825 84.2944 25.9305 83.8504 26.1895C83.1104 26.6705 81.8894 27.2625 80.5574 27.2625C78.1524 27.2625 76.4134 25.3015 76.3024 23.3035H86.3664C86.6994 23.3035 86.9954 23.0445 87.0324 22.6745C87.0694 22.4155 87.1064 21.9345 87.1064 21.6755C87.1064 17.7165 84.1464 14.8305 80.2984 14.8305C75.8584 14.8305 72.8984 18.4195 72.8984 22.6005ZM76.4874 20.9725C76.7094 19.1225 78.2634 17.6795 80.2614 17.6795C82.0744 17.6795 83.5544 19.1965 83.6654 20.9725H76.4874Z" fill="white"/>
<path d="M90.6647 29.2975C90.6647 29.6675 90.9978 30.0005 91.3678 30.0005H93.4767C93.8467 30.0005 94.1798 29.6675 94.1798 29.2975V4.80347C94.1798 4.43347 93.8467 4.10047 93.4767 4.10047H91.3678C90.9978 4.10047 90.6647 4.43347 90.6647 4.80347V29.2975Z" fill="white"/>
<path d="M100.677 9.16947C101.898 9.16947 102.86 8.20747 102.86 7.02347C102.86 5.80247 101.898 4.84047 100.677 4.84047C99.4933 4.84047 98.5683 5.80247 98.5683 7.02347C98.5683 8.20747 99.4933 9.16947 100.677 9.16947ZM98.9753 29.2975C98.9753 29.6675 99.3083 30.0005 99.6783 30.0005H101.787C102.157 30.0005 102.49 29.6675 102.49 29.2975V15.9035C102.49 15.5335 102.157 15.2005 101.787 15.2005H99.6783C99.3083 15.2005 98.9753 15.5335 98.9753 15.9035V29.2975Z" fill="white"/>
</svg>
