<svg width="177" height="30" viewBox="0 0 177 30" fill="none" xmlns="http://www.w3.org/2000/svg">
<path d="M170.434 24.0428C169.87 23.4133 169.391 22.7109 169.011 21.9542C168.41 20.7681 167.58 19.7151 166.568 18.8573C165.557 17.9995 164.386 17.3542 163.124 16.9594C162.02 16.6156 160.864 16.4697 159.71 16.5282C160.55 16.4799 161.377 16.753 162.026 17.2931C162.674 17.833 163.096 18.5999 163.207 19.44C163.511 21.2552 164.309 22.9496 165.514 24.334C166.718 25.7183 168.281 26.7381 170.028 27.2794C172.025 27.8977 174.166 27.8644 176.143 27.1842C173.941 26.8223 171.926 25.7142 170.434 24.0428Z" fill="white"/>
<path d="M156.272 16.3489C156.529 17.4696 156.981 18.5373 157.608 19.5038C157.15 18.802 156.974 17.9554 157.114 17.1311C157.254 16.3067 157.701 15.5644 158.365 15.0505C159.776 13.892 160.835 12.3675 161.425 10.6467C162.015 8.92589 162.112 7.07641 161.705 5.30423C161.241 3.27691 160.139 1.44854 158.56 0.0830078C159.346 2.16934 159.391 4.45967 158.688 6.57501C158.419 7.37361 158.044 8.13342 157.575 8.83478C156.854 9.93654 156.362 11.1707 156.13 12.4642C155.898 13.7576 155.929 15.0842 156.222 16.3655L156.272 16.3489Z" fill="white"/>
<path d="M161.193 20.251C160.82 21.005 160.18 21.5877 159.402 21.8823C158.623 22.177 157.764 22.1617 156.996 21.8396C155.304 21.1954 153.468 21.0419 151.695 21.3962C149.922 21.7506 148.281 22.5989 146.955 23.8464C145.443 25.2752 144.417 27.1549 144.024 29.2144C145.431 27.4796 147.378 26.284 149.544 25.8252C150.358 25.6561 151.189 25.5905 152.019 25.6301C153.32 25.6987 154.622 25.5016 155.847 25.0507C157.072 24.5997 158.196 23.9041 159.152 23.0047C159.989 22.2152 160.683 21.2833 161.204 20.251H161.193Z" fill="white"/>
<path d="M0.27121 29.0827H4.98721V17.5987C4.98721 16.3267 5.33521 15.3067 6.03121 14.5387C6.72721 13.7707 7.63921 13.3867 8.76721 13.3867C9.91921 13.3867 10.8312 13.7707 11.5032 14.5387C12.1992 15.2827 12.5472 16.3027 12.5472 17.5987V29.0827H17.2632V17.5987C17.2632 16.3267 17.6112 15.3067 18.3072 14.5387C19.0032 13.7707 19.9152 13.3867 21.0432 13.3867C22.1952 13.3867 23.1072 13.7707 23.7792 14.5387C24.4752 15.2827 24.8232 16.3027 24.8232 17.5987V29.0827H29.5392V16.4827C29.5392 15.0187 29.2152 13.7347 28.5672 12.6307C27.9432 11.5027 27.0912 10.6267 26.0112 10.0027C24.9312 9.3787 23.6952 9.0667 22.3032 9.0667C21.0072 9.0667 19.8312 9.3307 18.7752 9.8587C17.7432 10.3867 16.8912 11.1787 16.2192 12.2347C15.6432 11.2747 14.8152 10.5067 13.7352 9.9307C12.6792 9.3547 11.4912 9.0667 10.1712 9.0667C8.94721 9.0667 7.85521 9.3067 6.89521 9.7867C5.93521 10.2667 5.20321 10.9867 4.69921 11.9467V9.4987H0.27121V29.0827Z" fill="white"/>
<path d="M39.469 29.5147C42.013 29.5147 44.053 28.6747 45.589 26.9947V29.0827H50.053V16.0507C50.053 14.6827 49.705 13.4707 49.009 12.4147C48.313 11.3587 47.353 10.5427 46.129 9.9667C44.929 9.3667 43.525 9.0667 41.917 9.0667C39.949 9.0667 38.197 9.5347 36.661 10.4707C35.125 11.4067 34.069 12.6427 33.493 14.1787L37.345 16.0507C37.705 15.1627 38.269 14.4547 39.037 13.9267C39.805 13.3747 40.705 13.0987 41.737 13.0987C42.817 13.0987 43.681 13.3867 44.329 13.9627C45.001 14.5147 45.337 15.2107 45.337 16.0507V16.6987L39.505 17.6347C37.201 18.0187 35.497 18.7507 34.393 19.8307C33.289 20.9107 32.737 22.2667 32.737 23.8987C32.737 25.6267 33.349 26.9947 34.573 28.0027C35.797 29.0107 37.429 29.5147 39.469 29.5147ZM37.633 23.7187C37.633 22.3507 38.557 21.4867 40.405 21.1267L45.337 20.2987V21.0907C45.337 22.4347 44.869 23.5747 43.933 24.5107C43.021 25.4467 41.821 25.9147 40.333 25.9147C39.541 25.9147 38.893 25.7227 38.389 25.3387C37.885 24.9307 37.633 24.3907 37.633 23.7187Z" fill="white"/>
<path d="M54.4118 29.0827H59.1278V18.1747C59.1278 16.6867 59.5358 15.5347 60.3518 14.7187C61.1918 13.8787 62.2718 13.4587 63.5918 13.4587H65.2838V9.2827H64.1318C62.9318 9.2827 61.8758 9.4987 60.9638 9.9307C60.0518 10.3627 59.3438 11.1427 58.8398 12.2707V9.4987H54.4118V29.0827Z" fill="white"/>
<path d="M77.332 29.2987C78.124 29.2987 78.904 29.2387 79.672 29.1187V25.0507C79.216 25.1227 78.796 25.1587 78.412 25.1587C77.26 25.1587 76.42 24.8947 75.892 24.3667C75.364 23.8387 75.1 23.0827 75.1 22.0987V13.7107H79.6V9.4987H75.1V5.0347H70.384V6.5467C70.384 7.5067 70.12 8.2387 69.592 8.7427C69.064 9.2467 68.32 9.4987 67.36 9.4987H67V13.7107H70.384V22.3507C70.384 24.5347 70.984 26.2387 72.184 27.4627C73.408 28.6867 75.124 29.2987 77.332 29.2987Z" fill="white"/>
<path d="M83.2751 7.3027H87.9911V2.2627H83.2751V7.3027ZM83.2751 29.0827H87.9911V9.4987H83.2751V29.0827Z" fill="white"/>
<path d="M92.3454 29.0827H97.0614V17.5987C97.0614 16.3267 97.4214 15.3067 98.1414 14.5387C98.8854 13.7707 99.8454 13.3867 101.021 13.3867C102.197 13.3867 103.145 13.7707 103.865 14.5387C104.609 15.2827 104.981 16.3027 104.981 17.5987V29.0827H109.697V16.4827C109.697 15.0187 109.385 13.7347 108.761 12.6307C108.137 11.5027 107.261 10.6267 106.133 10.0027C105.029 9.3787 103.757 9.0667 102.317 9.0667C101.093 9.0667 99.9894 9.3067 99.0054 9.7867C98.0454 10.2667 97.3014 10.9747 96.7734 11.9107V9.4987H92.3454V29.0827Z" fill="white"/>
<path d="M123.261 29.5147C125.157 29.5147 126.885 29.0827 128.445 28.2187C130.005 27.3307 131.253 26.1187 132.189 24.5827C133.125 23.0227 133.593 21.2587 133.593 19.2907C133.593 17.3227 133.125 15.5707 132.189 14.0347C131.277 12.4987 130.041 11.2867 128.481 10.3987C126.921 9.5107 125.181 9.0667 123.261 9.0667C121.317 9.0667 119.565 9.5107 118.005 10.3987C116.445 11.2867 115.197 12.4987 114.261 14.0347C113.349 15.5707 112.893 17.3227 112.893 19.2907C112.893 21.2587 113.349 23.0107 114.261 24.5467C115.197 26.0827 116.445 27.2947 118.005 28.1827C119.589 29.0707 121.341 29.5147 123.261 29.5147ZM123.261 25.1947C122.205 25.1947 121.257 24.9427 120.417 24.4387C119.601 23.9347 118.953 23.2387 118.473 22.3507C118.017 21.4387 117.789 20.4187 117.789 19.2907C117.789 18.1627 118.017 17.1547 118.473 16.2667C118.953 15.3787 119.601 14.6827 120.417 14.1787C121.257 13.6507 122.205 13.3867 123.261 13.3867C124.317 13.3867 125.241 13.6507 126.033 14.1787C126.849 14.6827 127.485 15.3787 127.941 16.2667C128.421 17.1547 128.661 18.1627 128.661 19.2907C128.661 20.4187 128.421 21.4387 127.941 22.3507C127.485 23.2387 126.849 23.9347 126.033 24.4387C125.241 24.9427 124.317 25.1947 123.261 25.1947Z" fill="white"/>
</svg>
