<svg width="1295" height="147" viewBox="0 0 1295 147" fill="none" xmlns="http://www.w3.org/2000/svg">
<rect width="1295" height="147" rx="10" fill="url(#paint0_linear_1_70)"/>
<rect x="1033" y="44" width="220" height="60" rx="5" fill="white"/>
<path d="M1061 71.5625C1060.95 71.0663 1060.73 70.6799 1060.33 70.4034C1059.94 70.1269 1059.43 69.9886 1058.81 69.9886C1058.37 69.9886 1057.99 70.0549 1057.68 70.1875C1057.36 70.3201 1057.12 70.5 1056.96 70.7273C1056.79 70.9545 1056.71 71.214 1056.7 71.5057C1056.7 71.7481 1056.76 71.9583 1056.87 72.1364C1056.98 72.3144 1057.13 72.4659 1057.33 72.5909C1057.52 72.7121 1057.73 72.8144 1057.97 72.8977C1058.2 72.9811 1058.44 73.0511 1058.68 73.108L1059.77 73.3807C1060.21 73.483 1060.63 73.6212 1061.04 73.7955C1061.45 73.9697 1061.81 74.1894 1062.13 74.4545C1062.46 74.7197 1062.72 75.0398 1062.91 75.4148C1063.1 75.7898 1063.19 76.2292 1063.19 76.733C1063.19 77.4148 1063.02 78.0152 1062.67 78.5341C1062.32 79.0492 1061.82 79.4527 1061.16 79.7443C1060.5 80.0322 1059.71 80.1761 1058.78 80.1761C1057.87 80.1761 1057.08 80.036 1056.42 79.7557C1055.75 79.4754 1055.24 79.0663 1054.86 78.5284C1054.49 77.9905 1054.29 77.3352 1054.26 76.5625H1056.33C1056.36 76.9678 1056.49 77.3049 1056.71 77.5739C1056.93 77.8428 1057.21 78.0436 1057.57 78.1761C1057.92 78.3087 1058.32 78.375 1058.76 78.375C1059.22 78.375 1059.62 78.3068 1059.96 78.1705C1060.31 78.0303 1060.58 77.8371 1060.78 77.5909C1060.98 77.3409 1061.08 77.0492 1061.08 76.7159C1061.08 76.4129 1060.99 76.1629 1060.82 75.9659C1060.64 75.7652 1060.4 75.5985 1060.08 75.4659C1059.77 75.3295 1059.41 75.2083 1058.99 75.1023L1057.67 74.7614C1056.71 74.5152 1055.95 74.142 1055.39 73.642C1054.84 73.1383 1054.57 72.4697 1054.57 71.6364C1054.57 70.9508 1054.75 70.3504 1055.12 69.8352C1055.5 69.3201 1056.01 68.9205 1056.65 68.6364C1057.29 68.3485 1058.02 68.2045 1058.84 68.2045C1059.66 68.2045 1060.39 68.3485 1061.01 68.6364C1061.63 68.9205 1062.12 69.3163 1062.48 69.8239C1062.84 70.3277 1063.02 70.9072 1063.03 71.5625H1061ZM1069.34 71.2727V72.8636H1064.32V71.2727H1069.34ZM1065.56 69.1818H1067.62V77.375C1067.62 77.6515 1067.66 77.8636 1067.74 78.0114C1067.83 78.1553 1067.94 78.2538 1068.08 78.3068C1068.22 78.3598 1068.38 78.3864 1068.55 78.3864C1068.68 78.3864 1068.79 78.3769 1068.9 78.358C1069.01 78.339 1069.09 78.322 1069.15 78.3068L1069.5 79.9148C1069.39 79.9527 1069.23 79.9943 1069.02 80.0398C1068.82 80.0852 1068.58 80.1117 1068.29 80.1193C1067.77 80.1345 1067.31 80.0568 1066.89 79.8864C1066.48 79.7121 1066.15 79.4432 1065.91 79.0795C1065.67 78.7159 1065.55 78.2614 1065.56 77.7159V69.1818ZM1073.57 80.1761C1073.02 80.1761 1072.52 80.0777 1072.07 79.8807C1071.63 79.6799 1071.29 79.3845 1071.03 78.9943C1070.77 78.6042 1070.65 78.1231 1070.65 77.5511C1070.65 77.0587 1070.74 76.6515 1070.92 76.3295C1071.1 76.0076 1071.35 75.75 1071.66 75.5568C1071.98 75.3636 1072.33 75.2178 1072.73 75.1193C1073.13 75.017 1073.54 74.9432 1073.96 74.8977C1074.47 74.8447 1074.89 74.7973 1075.2 74.7557C1075.52 74.7102 1075.75 74.642 1075.9 74.5511C1076.05 74.4564 1076.12 74.3106 1076.12 74.1136V74.0795C1076.12 73.6515 1075.99 73.3201 1075.74 73.0852C1075.48 72.8504 1075.12 72.733 1074.64 72.733C1074.14 72.733 1073.74 72.8428 1073.44 73.0625C1073.15 73.2822 1072.95 73.5417 1072.85 73.8409L1070.93 73.5682C1071.08 73.0379 1071.33 72.5947 1071.68 72.2386C1072.03 71.8788 1072.46 71.6098 1072.96 71.4318C1073.46 71.25 1074.02 71.1591 1074.63 71.1591C1075.05 71.1591 1075.47 71.2083 1075.89 71.3068C1076.3 71.4053 1076.68 71.5682 1077.03 71.7955C1077.37 72.0189 1077.65 72.3239 1077.86 72.7102C1078.07 73.0966 1078.18 73.5795 1078.18 74.1591V80H1076.2V78.8011H1076.13C1076.01 79.0436 1075.83 79.2708 1075.6 79.483C1075.38 79.6913 1075.1 79.8598 1074.76 79.9886C1074.42 80.1136 1074.02 80.1761 1073.57 80.1761ZM1074.1 78.6648C1074.52 78.6648 1074.87 78.5833 1075.18 78.4205C1075.48 78.2538 1075.71 78.0341 1075.88 77.7614C1076.04 77.4886 1076.12 77.1913 1076.12 76.8693V75.8409C1076.06 75.8939 1075.95 75.9432 1075.8 75.9886C1075.64 76.0341 1075.47 76.0739 1075.28 76.108C1075.09 76.142 1074.91 76.1723 1074.72 76.1989C1074.54 76.2254 1074.38 76.2481 1074.24 76.267C1073.93 76.3087 1073.66 76.3769 1073.41 76.4716C1073.17 76.5663 1072.98 76.6989 1072.84 76.8693C1072.7 77.036 1072.63 77.2519 1072.63 77.517C1072.63 77.8958 1072.77 78.1818 1073.05 78.375C1073.32 78.5682 1073.67 78.6648 1074.1 78.6648ZM1080.24 80V71.2727H1082.24V72.7273H1082.33C1082.49 72.2235 1082.76 71.8352 1083.15 71.5625C1083.54 71.286 1083.98 71.1477 1084.48 71.1477C1084.6 71.1477 1084.72 71.1534 1084.86 71.1648C1085.01 71.1723 1085.13 71.1856 1085.22 71.2045V73.0966C1085.13 73.0663 1085 73.0398 1084.81 73.017C1084.62 72.9905 1084.44 72.9773 1084.27 72.9773C1083.89 72.9773 1083.55 73.0587 1083.26 73.2216C1082.96 73.3807 1082.73 73.6023 1082.56 73.8864C1082.39 74.1705 1082.3 74.4981 1082.3 74.8693V80H1080.24ZM1091.41 71.2727V72.8636H1086.4V71.2727H1091.41ZM1087.64 69.1818H1089.69V77.375C1089.69 77.6515 1089.73 77.8636 1089.82 78.0114C1089.91 78.1553 1090.02 78.2538 1090.16 78.3068C1090.3 78.3598 1090.45 78.3864 1090.62 78.3864C1090.75 78.3864 1090.87 78.3769 1090.98 78.358C1091.09 78.339 1091.17 78.322 1091.23 78.3068L1091.57 79.9148C1091.46 79.9527 1091.31 79.9943 1091.1 80.0398C1090.9 80.0852 1090.66 80.1117 1090.36 80.1193C1089.85 80.1345 1089.38 80.0568 1088.97 79.8864C1088.56 79.7121 1088.23 79.4432 1087.99 79.0795C1087.75 78.7159 1087.63 78.2614 1087.64 77.7159V69.1818ZM1101.81 68.3636V80H1099.71V70.4148H1099.64L1096.92 72.1534V70.2216L1099.81 68.3636H1101.81ZM1104.56 77.8409V76.1648L1109.5 68.3636H1110.89V70.75H1110.04L1106.72 76.017V76.108H1113.61V77.8409H1104.56ZM1110.11 80V77.3295L1110.13 76.5795V68.3636H1112.12V80H1110.11ZM1123.45 80H1119.51V68.3636H1123.53C1124.69 68.3636 1125.68 68.5966 1126.51 69.0625C1127.34 69.5246 1127.98 70.1894 1128.43 71.0568C1128.87 71.9242 1129.1 72.9621 1129.1 74.1705C1129.1 75.3826 1128.87 76.4242 1128.42 77.2955C1127.97 78.1667 1127.33 78.8352 1126.48 79.3011C1125.64 79.767 1124.63 80 1123.45 80ZM1121.62 78.1761H1123.35C1124.16 78.1761 1124.83 78.0284 1125.38 77.733C1125.92 77.4337 1126.33 76.9886 1126.6 76.3977C1126.87 75.803 1127.01 75.0606 1127.01 74.1705C1127.01 73.2803 1126.87 72.5417 1126.6 71.9545C1126.33 71.3636 1125.92 70.9223 1125.39 70.6307C1124.86 70.3352 1124.2 70.1875 1123.41 70.1875H1121.62V78.1761ZM1133.52 80.1761C1132.97 80.1761 1132.47 80.0777 1132.03 79.8807C1131.59 79.6799 1131.24 79.3845 1130.98 78.9943C1130.73 78.6042 1130.6 78.1231 1130.6 77.5511C1130.6 77.0587 1130.69 76.6515 1130.87 76.3295C1131.06 76.0076 1131.3 75.75 1131.62 75.5568C1131.93 75.3636 1132.29 75.2178 1132.68 75.1193C1133.08 75.017 1133.49 74.9432 1133.91 74.8977C1134.42 74.8447 1134.84 74.7973 1135.16 74.7557C1135.48 74.7102 1135.71 74.642 1135.85 74.5511C1136 74.4564 1136.07 74.3106 1136.07 74.1136V74.0795C1136.07 73.6515 1135.95 73.3201 1135.69 73.0852C1135.44 72.8504 1135.07 72.733 1134.6 72.733C1134.09 72.733 1133.69 72.8428 1133.4 73.0625C1133.1 73.2822 1132.91 73.5417 1132.81 73.8409L1130.88 73.5682C1131.04 73.0379 1131.29 72.5947 1131.63 72.2386C1131.98 71.8788 1132.41 71.6098 1132.91 71.4318C1133.42 71.25 1133.97 71.1591 1134.58 71.1591C1135 71.1591 1135.42 71.2083 1135.84 71.3068C1136.26 71.4053 1136.64 71.5682 1136.98 71.7955C1137.33 72.0189 1137.6 72.3239 1137.81 72.7102C1138.02 73.0966 1138.13 73.5795 1138.13 74.1591V80H1136.15V78.8011H1136.08C1135.96 79.0436 1135.78 79.2708 1135.56 79.483C1135.33 79.6913 1135.05 79.8598 1134.71 79.9886C1134.37 80.1136 1133.98 80.1761 1133.52 80.1761ZM1134.06 78.6648C1134.47 78.6648 1134.83 78.5833 1135.13 78.4205C1135.43 78.2538 1135.67 78.0341 1135.83 77.7614C1135.99 77.4886 1136.08 77.1913 1136.08 76.8693V75.8409C1136.01 75.8939 1135.9 75.9432 1135.75 75.9886C1135.6 76.0341 1135.43 76.0739 1135.24 76.108C1135.05 76.142 1134.86 76.1723 1134.67 76.1989C1134.49 76.2254 1134.33 76.2481 1134.19 76.267C1133.88 76.3087 1133.61 76.3769 1133.37 76.4716C1133.13 76.5663 1132.93 76.6989 1132.79 76.8693C1132.65 77.036 1132.58 77.2519 1132.58 77.517C1132.58 77.8958 1132.72 78.1818 1133 78.375C1133.28 78.5682 1133.63 78.6648 1134.06 78.6648ZM1141.16 83.2727C1140.88 83.2727 1140.62 83.25 1140.38 83.2045C1140.15 83.1629 1139.96 83.1136 1139.82 83.0568L1140.3 81.4545C1140.6 81.5417 1140.87 81.5833 1141.1 81.5795C1141.34 81.5758 1141.54 81.5019 1141.72 81.358C1141.9 81.2178 1142.06 80.983 1142.18 80.6534L1142.36 80.1818L1139.19 71.2727H1141.37L1143.38 77.8636H1143.48L1145.49 71.2727H1147.68L1144.19 81.0568C1144.02 81.5189 1143.81 81.9148 1143.54 82.2443C1143.27 82.5777 1142.94 82.8314 1142.55 83.0057C1142.16 83.1837 1141.7 83.2727 1141.16 83.2727ZM1156 73.5795L1154.13 73.7841C1154.07 73.5947 1153.98 73.4167 1153.85 73.25C1153.72 73.0833 1153.54 72.9489 1153.33 72.8466C1153.11 72.7443 1152.84 72.6932 1152.52 72.6932C1152.09 72.6932 1151.73 72.786 1151.44 72.9716C1151.15 73.1572 1151.01 73.3977 1151.01 73.6932C1151.01 73.947 1151.1 74.1534 1151.29 74.3125C1151.48 74.4716 1151.8 74.6023 1152.25 74.7045L1153.73 75.0227C1154.56 75.2008 1155.17 75.483 1155.58 75.8693C1155.98 76.2557 1156.19 76.7614 1156.19 77.3864C1156.19 77.9356 1156.02 78.4205 1155.71 78.8409C1155.39 79.2576 1154.95 79.5833 1154.39 79.8182C1153.83 80.053 1153.19 80.1705 1152.46 80.1705C1151.39 80.1705 1150.53 79.947 1149.88 79.5C1149.23 79.0492 1148.84 78.4223 1148.72 77.6193L1150.72 77.4261C1150.81 77.8201 1151.01 78.1174 1151.3 78.3182C1151.6 78.5189 1151.98 78.6193 1152.46 78.6193C1152.94 78.6193 1153.34 78.5189 1153.63 78.3182C1153.93 78.1174 1154.08 77.8693 1154.08 77.5739C1154.08 77.3239 1153.98 77.1174 1153.79 76.9545C1153.6 76.7917 1153.31 76.6667 1152.9 76.5795L1151.42 76.267C1150.58 76.0928 1149.96 75.7992 1149.56 75.3864C1149.16 74.9697 1148.96 74.4432 1148.96 73.8068C1148.96 73.2689 1149.1 72.803 1149.4 72.4091C1149.7 72.0114 1150.11 71.7045 1150.64 71.4886C1151.18 71.2689 1151.79 71.1591 1152.49 71.1591C1153.51 71.1591 1154.32 71.3769 1154.9 71.8125C1155.5 72.2481 1155.86 72.8371 1156 73.5795ZM1161.94 80V68.3636H1169.4V70.1307H1164.05V73.2898H1168.89V75.0568H1164.05V80H1161.94ZM1171.1 80V71.2727H1173.1V72.7273H1173.19C1173.35 72.2235 1173.62 71.8352 1174.01 71.5625C1174.4 71.286 1174.84 71.1477 1175.34 71.1477C1175.46 71.1477 1175.58 71.1534 1175.72 71.1648C1175.87 71.1723 1175.99 71.1856 1176.08 71.2045V73.0966C1175.99 73.0663 1175.86 73.0398 1175.67 73.017C1175.48 72.9905 1175.3 72.9773 1175.13 72.9773C1174.75 72.9773 1174.41 73.0587 1174.12 73.2216C1173.82 73.3807 1173.59 73.6023 1173.42 73.8864C1173.25 74.1705 1173.16 74.4981 1173.16 74.8693V80H1171.1ZM1180.95 80.1705C1180.08 80.1705 1179.32 79.9886 1178.68 79.625C1178.05 79.2576 1177.57 78.7386 1177.22 78.0682C1176.88 77.3939 1176.71 76.6004 1176.71 75.6875C1176.71 74.7898 1176.88 74.0019 1177.22 73.3239C1177.57 72.642 1178.05 72.1117 1178.67 71.733C1179.29 71.3504 1180.01 71.1591 1180.84 71.1591C1181.38 71.1591 1181.89 71.2462 1182.37 71.4205C1182.85 71.5909 1183.27 71.8561 1183.64 72.2159C1184.01 72.5758 1184.3 73.0341 1184.51 73.5909C1184.73 74.1439 1184.83 74.803 1184.83 75.5682V76.1989H1177.68V74.8125H1182.86C1182.86 74.4186 1182.77 74.0682 1182.61 73.7614C1182.44 73.4508 1182.21 73.2064 1181.91 73.0284C1181.61 72.8504 1181.27 72.7614 1180.87 72.7614C1180.45 72.7614 1180.08 72.8636 1179.76 73.0682C1179.45 73.2689 1179.2 73.5341 1179.02 73.8636C1178.85 74.1894 1178.76 74.5473 1178.75 74.9375V76.1477C1178.75 76.6553 1178.85 77.0909 1179.03 77.4545C1179.22 77.8144 1179.48 78.0909 1179.81 78.2841C1180.14 78.4735 1180.53 78.5682 1180.98 78.5682C1181.28 78.5682 1181.55 78.5265 1181.79 78.4432C1182.04 78.3561 1182.25 78.2292 1182.42 78.0625C1182.6 77.8958 1182.74 77.6894 1182.83 77.4432L1184.75 77.6591C1184.63 78.1667 1184.39 78.6098 1184.05 78.9886C1183.72 79.3636 1183.29 79.6553 1182.76 79.8636C1182.23 80.0682 1181.63 80.1705 1180.95 80.1705ZM1190.44 80.1705C1189.56 80.1705 1188.81 79.9886 1188.17 79.625C1187.54 79.2576 1187.05 78.7386 1186.71 78.0682C1186.37 77.3939 1186.2 76.6004 1186.2 75.6875C1186.2 74.7898 1186.37 74.0019 1186.71 73.3239C1187.05 72.642 1187.53 72.1117 1188.15 71.733C1188.77 71.3504 1189.49 71.1591 1190.33 71.1591C1190.87 71.1591 1191.37 71.2462 1191.85 71.4205C1192.33 71.5909 1192.76 71.8561 1193.12 72.2159C1193.49 72.5758 1193.79 73.0341 1194 73.5909C1194.21 74.1439 1194.32 74.803 1194.32 75.5682V76.1989H1187.16V74.8125H1192.35C1192.34 74.4186 1192.26 74.0682 1192.09 73.7614C1191.92 73.4508 1191.69 73.2064 1191.39 73.0284C1191.1 72.8504 1190.75 72.7614 1190.36 72.7614C1189.94 72.7614 1189.57 72.8636 1189.25 73.0682C1188.93 73.2689 1188.68 73.5341 1188.5 73.8636C1188.33 74.1894 1188.24 74.5473 1188.24 74.9375V76.1477C1188.24 76.6553 1188.33 77.0909 1188.52 77.4545C1188.7 77.8144 1188.96 78.0909 1189.29 78.2841C1189.63 78.4735 1190.02 78.5682 1190.46 78.5682C1190.76 78.5682 1191.03 78.5265 1191.28 78.4432C1191.52 78.3561 1191.73 78.2292 1191.91 78.0625C1192.09 77.8958 1192.22 77.6894 1192.31 77.4432L1194.23 77.6591C1194.11 78.1667 1193.88 78.6098 1193.54 78.9886C1193.2 79.3636 1192.77 79.6553 1192.24 79.8636C1191.72 80.0682 1191.11 80.1705 1190.44 80.1705ZM1199.61 70.1307V68.3636H1208.89V70.1307H1205.29V80H1203.2V70.1307H1199.61ZM1209.68 80V71.2727H1211.68V72.7273H1211.77C1211.93 72.2235 1212.2 71.8352 1212.59 71.5625C1212.98 71.286 1213.42 71.1477 1213.92 71.1477C1214.03 71.1477 1214.16 71.1534 1214.3 71.1648C1214.45 71.1723 1214.56 71.1856 1214.66 71.2045V73.0966C1214.57 73.0663 1214.43 73.0398 1214.24 73.017C1214.06 72.9905 1213.88 72.9773 1213.7 72.9773C1213.33 72.9773 1212.99 73.0587 1212.69 73.2216C1212.4 73.3807 1212.16 73.6023 1211.99 73.8864C1211.82 74.1705 1211.74 74.4981 1211.74 74.8693V80H1209.68ZM1216.03 80V71.2727H1218.08V80H1216.03ZM1217.06 70.0341C1216.73 70.0341 1216.45 69.9261 1216.22 69.7102C1215.98 69.4905 1215.87 69.2273 1215.87 68.9205C1215.87 68.6098 1215.98 68.3466 1216.22 68.1307C1216.45 67.911 1216.73 67.8011 1217.06 67.8011C1217.39 67.8011 1217.67 67.911 1217.9 68.1307C1218.14 68.3466 1218.25 68.6098 1218.25 68.9205C1218.25 69.2273 1218.14 69.4905 1217.9 69.7102C1217.67 69.9261 1217.39 70.0341 1217.06 70.0341ZM1222.71 80.1761C1222.16 80.1761 1221.66 80.0777 1221.21 79.8807C1220.78 79.6799 1220.43 79.3845 1220.17 78.9943C1219.92 78.6042 1219.79 78.1231 1219.79 77.5511C1219.79 77.0587 1219.88 76.6515 1220.06 76.3295C1220.24 76.0076 1220.49 75.75 1220.81 75.5568C1221.12 75.3636 1221.47 75.2178 1221.87 75.1193C1222.27 75.017 1222.68 74.9432 1223.1 74.8977C1223.61 74.8447 1224.03 74.7973 1224.35 74.7557C1224.66 74.7102 1224.89 74.642 1225.04 74.5511C1225.19 74.4564 1225.26 74.3106 1225.26 74.1136V74.0795C1225.26 73.6515 1225.13 73.3201 1224.88 73.0852C1224.63 72.8504 1224.26 72.733 1223.78 72.733C1223.28 72.733 1222.88 72.8428 1222.58 73.0625C1222.29 73.2822 1222.1 73.5417 1221.99 73.8409L1220.07 73.5682C1220.22 73.0379 1220.47 72.5947 1220.82 72.2386C1221.17 71.8788 1221.6 71.6098 1222.1 71.4318C1222.6 71.25 1223.16 71.1591 1223.77 71.1591C1224.19 71.1591 1224.61 71.2083 1225.03 71.3068C1225.44 71.4053 1225.82 71.5682 1226.17 71.7955C1226.51 72.0189 1226.79 72.3239 1227 72.7102C1227.21 73.0966 1227.32 73.5795 1227.32 74.1591V80H1225.34V78.8011H1225.27C1225.15 79.0436 1224.97 79.2708 1224.74 79.483C1224.52 79.6913 1224.24 79.8598 1223.9 79.9886C1223.56 80.1136 1223.16 80.1761 1222.71 80.1761ZM1223.24 78.6648C1223.66 78.6648 1224.01 78.5833 1224.32 78.4205C1224.62 78.2538 1224.85 78.0341 1225.02 77.7614C1225.18 77.4886 1225.27 77.1913 1225.27 76.8693V75.8409C1225.2 75.8939 1225.09 75.9432 1224.94 75.9886C1224.78 76.0341 1224.61 76.0739 1224.42 76.108C1224.24 76.142 1224.05 76.1723 1223.86 76.1989C1223.68 76.2254 1223.52 76.2481 1223.38 76.267C1223.07 76.3087 1222.8 76.3769 1222.56 76.4716C1222.31 76.5663 1222.12 76.6989 1221.98 76.8693C1221.84 77.036 1221.77 77.2519 1221.77 77.517C1221.77 77.8958 1221.91 78.1818 1222.19 78.375C1222.46 78.5682 1222.81 78.6648 1223.24 78.6648ZM1231.44 68.3636V80H1229.38V68.3636H1231.44Z" fill="#12141D"/>
<path d="M50.304 62V39.504H54.656V62H50.304ZM61.0968 62V40.112H65.2888V62H61.0968ZM57.4808 50.224V46.544H68.9048V50.224H57.4808ZM81.6403 62L75.8483 46.544H80.0723L83.8483 57.776L82.5683 57.808L86.4403 46.544H89.4803L93.3523 57.808L92.0723 57.776L95.8483 46.544H100.072L94.3123 62H91.2723L87.3683 51.312H88.5523L84.6483 62H81.6403ZM101.856 62V46.544H106.08V62H101.856ZM103.968 44.048C103.285 44.048 102.72 43.824 102.272 43.376C101.824 42.9067 101.6 42.3307 101.6 41.648C101.6 40.9867 101.824 40.4213 102.272 39.952C102.72 39.4827 103.285 39.248 103.968 39.248C104.672 39.248 105.237 39.4827 105.664 39.952C106.112 40.4213 106.336 40.9867 106.336 41.648C106.336 42.3307 106.112 42.9067 105.664 43.376C105.237 43.824 104.672 44.048 103.968 44.048ZM109.794 62V38.864H113.986V62H109.794ZM117.7 62V38.864H121.892V62H117.7ZM142.256 62V53.136C142.256 52.2187 141.968 51.472 141.392 50.896C140.816 50.32 140.069 50.032 139.152 50.032C138.555 50.032 138.021 50.16 137.552 50.416C137.083 50.672 136.709 51.0347 136.432 51.504C136.176 51.9733 136.048 52.5173 136.048 53.136L134.416 52.304C134.416 51.088 134.672 50.032 135.184 49.136C135.696 48.2187 136.4 47.504 137.296 46.992C138.213 46.48 139.259 46.224 140.432 46.224C141.605 46.224 142.64 46.48 143.536 46.992C144.453 47.504 145.168 48.208 145.68 49.104C146.192 50 146.448 51.0347 146.448 52.208V62H142.256ZM131.856 62V38.864H136.048V62H131.856ZM157.217 62.32C155.595 62.32 154.155 61.9787 152.897 61.296C151.638 60.592 150.635 59.632 149.889 58.416C149.163 57.2 148.801 55.8133 148.801 54.256C148.801 52.72 149.153 51.3547 149.857 50.16C150.582 48.944 151.563 47.984 152.801 47.28C154.038 46.5547 155.414 46.192 156.929 46.192C158.422 46.192 159.734 46.5333 160.865 47.216C162.017 47.8773 162.913 48.7947 163.553 49.968C164.214 51.12 164.545 52.432 164.545 53.904C164.545 54.1813 164.523 54.4693 164.481 54.768C164.459 55.0453 164.406 55.3653 164.321 55.728L151.329 55.76V52.624L162.369 52.592L160.673 53.904C160.63 52.9867 160.459 52.2187 160.161 51.6C159.883 50.9813 159.467 50.512 158.913 50.192C158.379 49.8507 157.718 49.68 156.929 49.68C156.097 49.68 155.371 49.872 154.753 50.256C154.134 50.6187 153.654 51.1413 153.313 51.824C152.993 52.4853 152.833 53.2747 152.833 54.192C152.833 55.1307 153.003 55.952 153.345 56.656C153.707 57.3387 154.219 57.872 154.881 58.256C155.542 58.6187 156.31 58.8 157.185 58.8C157.974 58.8 158.689 58.672 159.329 58.416C159.969 58.1387 160.523 57.7333 160.993 57.2L163.457 59.664C162.71 60.5387 161.793 61.2 160.705 61.648C159.638 62.096 158.475 62.32 157.217 62.32ZM167.137 62V38.864H171.329V62H167.137ZM183.62 62.32C182.51 62.32 181.508 62.096 180.612 61.648C179.716 61.1787 179.001 60.5493 178.468 59.76C177.934 58.9707 177.646 58.064 177.604 57.04V51.568C177.646 50.544 177.934 49.6373 178.468 48.848C179.022 48.0373 179.737 47.3973 180.612 46.928C181.508 46.4587 182.51 46.224 183.62 46.224C185.049 46.224 186.329 46.576 187.46 47.28C188.59 47.984 189.476 48.944 190.116 50.16C190.777 51.376 191.108 52.752 191.108 54.288C191.108 55.8027 190.777 57.168 190.116 58.384C189.476 59.6 188.59 60.56 187.46 61.264C186.329 61.968 185.049 62.32 183.62 62.32ZM182.884 58.448C183.652 58.448 184.334 58.2773 184.932 57.936C185.529 57.5733 185.988 57.0827 186.308 56.464C186.649 55.824 186.82 55.088 186.82 54.256C186.82 53.4453 186.649 52.7307 186.308 52.112C185.988 51.472 185.529 50.9813 184.932 50.64C184.334 50.2773 183.652 50.096 182.884 50.096C182.137 50.096 181.465 50.2773 180.868 50.64C180.27 50.9813 179.801 51.472 179.46 52.112C179.14 52.7307 178.98 53.4453 178.98 54.256C178.98 55.088 179.14 55.824 179.46 56.464C179.801 57.0827 180.26 57.5733 180.836 57.936C181.433 58.2773 182.116 58.448 182.884 58.448ZM175.044 68.464V46.544H179.236V50.608L178.532 54.352L179.204 58.096V68.464H175.044ZM204.97 62.128L198.506 46.544H203.05L207.338 58.448H205.802L210.25 46.544H214.826L207.946 62.096L204.97 62.128ZM200.682 68.464L205.386 58.512L207.946 62.096L205.13 68.464H200.682ZM223.526 62.32C221.969 62.32 220.561 61.968 219.302 61.264C218.065 60.5387 217.073 59.568 216.326 58.352C215.601 57.1147 215.238 55.7387 215.238 54.224C215.238 52.7093 215.601 51.3547 216.326 50.16C217.052 48.944 218.044 47.984 219.302 47.28C220.561 46.5547 221.958 46.192 223.494 46.192C225.073 46.192 226.481 46.5547 227.718 47.28C228.977 47.984 229.969 48.944 230.694 50.16C231.42 51.3547 231.782 52.7093 231.782 54.224C231.782 55.7387 231.42 57.1147 230.694 58.352C229.969 59.568 228.977 60.5387 227.718 61.264C226.481 61.968 225.084 62.32 223.526 62.32ZM223.494 58.416C224.284 58.416 224.977 58.2453 225.574 57.904C226.193 57.5413 226.662 57.0507 226.982 56.432C227.324 55.792 227.494 55.0667 227.494 54.256C227.494 53.4453 227.324 52.7307 226.982 52.112C226.641 51.4933 226.172 51.0133 225.574 50.672C224.977 50.3093 224.284 50.128 223.494 50.128C222.726 50.128 222.044 50.3093 221.446 50.672C220.849 51.0133 220.38 51.4933 220.038 52.112C219.697 52.7307 219.526 53.4453 219.526 54.256C219.526 55.0667 219.697 55.792 220.038 56.432C220.38 57.0507 220.849 57.5413 221.446 57.904C222.044 58.2453 222.726 58.416 223.494 58.416ZM241.073 62.32C239.708 62.32 238.492 62.032 237.425 61.456C236.38 60.88 235.558 60.08 234.961 59.056C234.364 58.032 234.065 56.848 234.065 55.504V46.544H238.289V55.408C238.289 56.048 238.396 56.6027 238.609 57.072C238.822 57.52 239.142 57.8613 239.569 58.096C239.996 58.3307 240.497 58.448 241.073 58.448C241.948 58.448 242.63 58.1813 243.121 57.648C243.612 57.1147 243.857 56.368 243.857 55.408V46.544H248.049V55.504C248.049 56.8693 247.75 58.064 247.153 59.088C246.577 60.112 245.756 60.912 244.689 61.488C243.644 62.0427 242.438 62.32 241.073 62.32ZM257.637 62V46.544H261.861V62H257.637ZM259.749 44.048C259.067 44.048 258.501 43.824 258.053 43.376C257.605 42.9067 257.381 42.3307 257.381 41.648C257.381 40.9867 257.605 40.4213 258.053 39.952C258.501 39.4827 259.067 39.248 259.749 39.248C260.453 39.248 261.019 39.4827 261.445 39.952C261.893 40.4213 262.117 40.9867 262.117 41.648C262.117 42.3307 261.893 42.9067 261.445 43.376C261.019 43.824 260.453 44.048 259.749 44.048ZM265.575 62V46.544H269.767V62H265.575ZM275.655 62V52.88C275.655 51.984 275.367 51.2907 274.791 50.8C274.236 50.288 273.543 50.032 272.711 50.032C272.156 50.032 271.655 50.1493 271.207 50.384C270.759 50.5973 270.407 50.9173 270.151 51.344C269.895 51.7707 269.767 52.2827 269.767 52.88L268.135 52.08C268.135 50.8853 268.391 49.8507 268.903 48.976C269.436 48.1013 270.151 47.4293 271.047 46.96C271.943 46.4693 272.956 46.224 274.087 46.224C275.153 46.224 276.124 46.4693 276.999 46.96C277.873 47.4293 278.567 48.1013 279.079 48.976C279.591 49.8293 279.847 50.864 279.847 52.08V62H275.655ZM285.735 62V52.88C285.735 51.984 285.447 51.2907 284.871 50.8C284.316 50.288 283.623 50.032 282.791 50.032C282.257 50.032 281.756 50.1493 281.287 50.384C280.839 50.5973 280.487 50.9173 280.231 51.344C279.975 51.7707 279.847 52.2827 279.847 52.88L277.447 52.304C277.532 51.0667 277.863 50 278.439 49.104C279.015 48.1867 279.772 47.4827 280.711 46.992C281.649 46.48 282.695 46.224 283.847 46.224C284.999 46.224 286.033 46.4693 286.951 46.96C287.868 47.4293 288.593 48.112 289.127 49.008C289.66 49.904 289.927 50.9707 289.927 52.208V62H285.735ZM301.901 62.32C300.791 62.32 299.789 62.096 298.893 61.648C297.997 61.1787 297.282 60.5493 296.749 59.76C296.215 58.9707 295.927 58.064 295.885 57.04V51.568C295.927 50.544 296.215 49.6373 296.749 48.848C297.303 48.0373 298.018 47.3973 298.893 46.928C299.789 46.4587 300.791 46.224 301.901 46.224C303.33 46.224 304.61 46.576 305.741 47.28C306.871 47.984 307.757 48.944 308.397 50.16C309.058 51.376 309.389 52.752 309.389 54.288C309.389 55.8027 309.058 57.168 308.397 58.384C307.757 59.6 306.871 60.56 305.741 61.264C304.61 61.968 303.33 62.32 301.901 62.32ZM301.165 58.448C301.933 58.448 302.615 58.2773 303.213 57.936C303.81 57.5733 304.269 57.0827 304.589 56.464C304.93 55.824 305.101 55.088 305.101 54.256C305.101 53.4453 304.93 52.7307 304.589 52.112C304.269 51.472 303.81 50.9813 303.213 50.64C302.615 50.2773 301.933 50.096 301.165 50.096C300.418 50.096 299.746 50.2773 299.149 50.64C298.551 50.9813 298.082 51.472 297.741 52.112C297.421 52.7307 297.261 53.4453 297.261 54.256C297.261 55.088 297.421 55.824 297.741 56.464C298.082 57.0827 298.541 57.5733 299.117 57.936C299.714 58.2773 300.397 58.448 301.165 58.448ZM293.325 68.464V46.544H297.517V50.608L296.813 54.352L297.485 58.096V68.464H293.325ZM312.137 62V46.544H316.329V62H312.137ZM316.329 53.456L314.697 52.368C314.889 50.4693 315.444 48.976 316.361 47.888C317.279 46.7787 318.601 46.224 320.329 46.224C321.076 46.224 321.748 46.352 322.345 46.608C322.943 46.8427 323.487 47.2373 323.977 47.792L321.353 50.8C321.119 50.544 320.831 50.352 320.489 50.224C320.169 50.096 319.796 50.032 319.369 50.032C318.473 50.032 317.737 50.32 317.161 50.896C316.607 51.4507 316.329 52.304 316.329 53.456ZM332.276 62.32C330.719 62.32 329.311 61.968 328.052 61.264C326.815 60.5387 325.823 59.568 325.076 58.352C324.351 57.1147 323.988 55.7387 323.988 54.224C323.988 52.7093 324.351 51.3547 325.076 50.16C325.802 48.944 326.794 47.984 328.052 47.28C329.311 46.5547 330.708 46.192 332.244 46.192C333.823 46.192 335.231 46.5547 336.468 47.28C337.727 47.984 338.719 48.944 339.444 50.16C340.17 51.3547 340.532 52.7093 340.532 54.224C340.532 55.7387 340.17 57.1147 339.444 58.352C338.719 59.568 337.727 60.5387 336.468 61.264C335.231 61.968 333.834 62.32 332.276 62.32ZM332.244 58.416C333.034 58.416 333.727 58.2453 334.324 57.904C334.943 57.5413 335.412 57.0507 335.732 56.432C336.074 55.792 336.244 55.0667 336.244 54.256C336.244 53.4453 336.074 52.7307 335.732 52.112C335.391 51.4933 334.922 51.0133 334.324 50.672C333.727 50.3093 333.034 50.128 332.244 50.128C331.476 50.128 330.794 50.3093 330.196 50.672C329.599 51.0133 329.13 51.4933 328.788 52.112C328.447 52.7307 328.276 53.4453 328.276 54.256C328.276 55.0667 328.447 55.792 328.788 56.432C329.13 57.0507 329.599 57.5413 330.196 57.904C330.794 58.2453 331.476 58.416 332.244 58.416ZM347.786 62L340.97 46.544H345.578L350.474 59.28H348.202L353.13 46.544H357.578L350.794 62H347.786ZM366.436 62.32C364.814 62.32 363.374 61.9787 362.116 61.296C360.857 60.592 359.854 59.632 359.108 58.416C358.382 57.2 358.02 55.8133 358.02 54.256C358.02 52.72 358.372 51.3547 359.076 50.16C359.801 48.944 360.782 47.984 362.02 47.28C363.257 46.5547 364.633 46.192 366.148 46.192C367.641 46.192 368.953 46.5333 370.084 47.216C371.236 47.8773 372.132 48.7947 372.772 49.968C373.433 51.12 373.764 52.432 373.764 53.904C373.764 54.1813 373.742 54.4693 373.7 54.768C373.678 55.0453 373.625 55.3653 373.54 55.728L360.548 55.76V52.624L371.588 52.592L369.892 53.904C369.849 52.9867 369.678 52.2187 369.38 51.6C369.102 50.9813 368.686 50.512 368.132 50.192C367.598 49.8507 366.937 49.68 366.148 49.68C365.316 49.68 364.59 49.872 363.972 50.256C363.353 50.6187 362.873 51.1413 362.532 51.824C362.212 52.4853 362.052 53.2747 362.052 54.192C362.052 55.1307 362.222 55.952 362.564 56.656C362.926 57.3387 363.438 57.872 364.1 58.256C364.761 58.6187 365.529 58.8 366.404 58.8C367.193 58.8 367.908 58.672 368.548 58.416C369.188 58.1387 369.742 57.7333 370.212 57.2L372.676 59.664C371.929 60.5387 371.012 61.2 369.924 61.648C368.857 62.096 367.694 62.32 366.436 62.32ZM387.47 62.128L381.006 46.544H385.55L389.838 58.448H388.302L392.75 46.544H397.326L390.446 62.096L387.47 62.128ZM383.182 68.464L387.886 58.512L390.446 62.096L387.63 68.464H383.182ZM406.026 62.32C404.469 62.32 403.061 61.968 401.802 61.264C400.565 60.5387 399.573 59.568 398.826 58.352C398.101 57.1147 397.738 55.7387 397.738 54.224C397.738 52.7093 398.101 51.3547 398.826 50.16C399.552 48.944 400.544 47.984 401.802 47.28C403.061 46.5547 404.458 46.192 405.994 46.192C407.573 46.192 408.981 46.5547 410.218 47.28C411.477 47.984 412.469 48.944 413.194 50.16C413.92 51.3547 414.282 52.7093 414.282 54.224C414.282 55.7387 413.92 57.1147 413.194 58.352C412.469 59.568 411.477 60.5387 410.218 61.264C408.981 61.968 407.584 62.32 406.026 62.32ZM405.994 58.416C406.784 58.416 407.477 58.2453 408.074 57.904C408.693 57.5413 409.162 57.0507 409.482 56.432C409.824 55.792 409.994 55.0667 409.994 54.256C409.994 53.4453 409.824 52.7307 409.482 52.112C409.141 51.4933 408.672 51.0133 408.074 50.672C407.477 50.3093 406.784 50.128 405.994 50.128C405.226 50.128 404.544 50.3093 403.946 50.672C403.349 51.0133 402.88 51.4933 402.538 52.112C402.197 52.7307 402.026 53.4453 402.026 54.256C402.026 55.0667 402.197 55.792 402.538 56.432C402.88 57.0507 403.349 57.5413 403.946 57.904C404.544 58.2453 405.226 58.416 405.994 58.416ZM423.573 62.32C422.208 62.32 420.992 62.032 419.925 61.456C418.88 60.88 418.058 60.08 417.461 59.056C416.864 58.032 416.565 56.848 416.565 55.504V46.544H420.789V55.408C420.789 56.048 420.896 56.6027 421.109 57.072C421.322 57.52 421.642 57.8613 422.069 58.096C422.496 58.3307 422.997 58.448 423.573 58.448C424.448 58.448 425.13 58.1813 425.621 57.648C426.112 57.1147 426.357 56.368 426.357 55.408V46.544H430.549V55.504C430.549 56.8693 430.25 58.064 429.653 59.088C429.077 60.112 428.256 60.912 427.189 61.488C426.144 62.0427 424.938 62.32 423.573 62.32ZM433.887 62V46.544H438.079V62H433.887ZM438.079 53.456L436.447 52.368C436.639 50.4693 437.194 48.976 438.111 47.888C439.029 46.7787 440.351 46.224 442.079 46.224C442.826 46.224 443.498 46.352 444.095 46.608C444.693 46.8427 445.237 47.2373 445.727 47.792L443.103 50.8C442.869 50.544 442.581 50.352 442.239 50.224C441.919 50.096 441.546 50.032 441.119 50.032C440.223 50.032 439.487 50.32 438.911 50.896C438.357 51.4507 438.079 52.304 438.079 53.456ZM458.14 62L452.348 46.544H456.572L460.348 57.776L459.068 57.808L462.94 46.544H465.98L469.852 57.808L468.572 57.776L472.348 46.544H476.572L470.812 62H467.772L463.868 51.312H465.052L461.148 62H458.14ZM478.606 62V46.544H482.798V62H478.606ZM482.798 53.456L481.166 52.368C481.358 50.4693 481.913 48.976 482.83 47.888C483.747 46.7787 485.07 46.224 486.798 46.224C487.545 46.224 488.217 46.352 488.814 46.608C489.411 46.8427 489.955 47.2373 490.446 47.792L487.822 50.8C487.587 50.544 487.299 50.352 486.958 50.224C486.638 50.096 486.265 50.032 485.838 50.032C484.942 50.032 484.206 50.32 483.63 50.896C483.075 51.4507 482.798 52.304 482.798 53.456ZM491.919 62V46.544H496.143V62H491.919ZM494.031 44.048C493.348 44.048 492.783 43.824 492.335 43.376C491.887 42.9067 491.663 42.3307 491.663 41.648C491.663 40.9867 491.887 40.4213 492.335 39.952C492.783 39.4827 493.348 39.248 494.031 39.248C494.735 39.248 495.3 39.4827 495.727 39.952C496.175 40.4213 496.399 40.9867 496.399 41.648C496.399 42.3307 496.175 42.9067 495.727 43.376C495.3 43.824 494.735 44.048 494.031 44.048ZM502.128 62V40.112H506.32V62H502.128ZM498.512 50.224V46.544H509.936V50.224H498.512ZM512.294 62V46.544H516.518V62H512.294ZM514.406 44.048C513.723 44.048 513.158 43.824 512.71 43.376C512.262 42.9067 512.038 42.3307 512.038 41.648C512.038 40.9867 512.262 40.4213 512.71 39.952C513.158 39.4827 513.723 39.248 514.406 39.248C515.11 39.248 515.675 39.4827 516.102 39.952C516.55 40.4213 516.774 40.9867 516.774 41.648C516.774 42.3307 516.55 42.9067 516.102 43.376C515.675 43.824 515.11 44.048 514.406 44.048ZM530.631 62V53.136C530.631 52.2187 530.343 51.472 529.767 50.896C529.191 50.32 528.444 50.032 527.527 50.032C526.93 50.032 526.396 50.16 525.927 50.416C525.458 50.672 525.084 51.0347 524.807 51.504C524.551 51.9733 524.423 52.5173 524.423 53.136L522.791 52.304C522.791 51.088 523.047 50.032 523.559 49.136C524.092 48.2187 524.818 47.504 525.735 46.992C526.674 46.48 527.73 46.224 528.903 46.224C530.034 46.224 531.047 46.512 531.943 47.088C532.839 47.6427 533.543 48.3787 534.055 49.296C534.567 50.192 534.823 51.1627 534.823 52.208V62H530.631ZM520.231 62V46.544H524.423V62H520.231ZM544.664 68.848C543.021 68.848 541.57 68.5493 540.312 67.952C539.053 67.376 538.05 66.5547 537.304 65.488L539.96 62.832C540.557 63.536 541.218 64.0693 541.944 64.432C542.69 64.816 543.586 65.008 544.632 65.008C545.933 65.008 546.957 64.6773 547.704 64.016C548.472 63.3547 548.856 62.4373 548.856 61.264V57.392L549.56 54L548.888 50.608V46.544H553.048V61.2C553.048 62.736 552.685 64.0693 551.96 65.2C551.256 66.352 550.274 67.248 549.016 67.888C547.757 68.528 546.306 68.848 544.664 68.848ZM544.472 61.584C543.085 61.584 541.837 61.2533 540.728 60.592C539.618 59.9093 538.744 58.9813 538.104 57.808C537.485 56.6347 537.176 55.3227 537.176 53.872C537.176 52.4213 537.485 51.12 538.104 49.968C538.744 48.816 539.618 47.9093 540.728 47.248C541.837 46.5653 543.085 46.224 544.472 46.224C545.624 46.224 546.637 46.448 547.512 46.896C548.408 47.344 549.112 47.9627 549.624 48.752C550.136 49.52 550.413 50.4267 550.456 51.472V56.336C550.413 57.36 550.125 58.2773 549.592 59.088C549.08 59.8773 548.376 60.496 547.48 60.944C546.605 61.3707 545.602 61.584 544.472 61.584ZM545.304 57.776C546.072 57.776 546.733 57.616 547.288 57.296C547.864 56.9547 548.312 56.496 548.632 55.92C548.952 55.3227 549.112 54.6507 549.112 53.904C549.112 53.136 548.952 52.464 548.632 51.888C548.312 51.312 547.864 50.864 547.288 50.544C546.733 50.2027 546.072 50.032 545.304 50.032C544.536 50.032 543.864 50.2027 543.288 50.544C542.712 50.864 542.264 51.3227 541.944 51.92C541.624 52.496 541.464 53.1573 541.464 53.904C541.464 54.6293 541.624 55.2907 541.944 55.888C542.264 56.464 542.712 56.9227 543.288 57.264C543.864 57.6053 544.536 57.776 545.304 57.776ZM64.576 104L54.08 92.48C53.2907 91.6053 52.704 90.7733 52.32 89.984C51.936 89.1733 51.744 88.288 51.744 87.328C51.744 86.1973 52.0213 85.1627 52.576 84.224C53.152 83.2853 53.9307 82.5387 54.912 81.984C55.9147 81.4293 57.056 81.152 58.336 81.152C59.3387 81.152 60.2347 81.312 61.024 81.632C61.8133 81.9307 62.496 82.3253 63.072 82.816C63.6693 83.3067 64.1493 83.8293 64.512 84.384L61.632 87.072C61.184 86.4533 60.704 85.9733 60.192 85.632C59.68 85.2693 59.0827 85.088 58.4 85.088C57.6747 85.088 57.0667 85.3013 56.576 85.728C56.0853 86.1547 55.84 86.688 55.84 87.328C55.84 87.9253 55.968 88.4373 56.224 88.864C56.48 89.2693 56.832 89.7387 57.28 90.272L69.536 104H64.576ZM57.056 104.32C55.52 104.32 54.176 104.021 53.024 103.424C51.8933 102.827 51.008 102.016 50.368 100.992C49.7493 99.9467 49.44 98.7627 49.44 97.44C49.44 96.0747 49.8027 94.848 50.528 93.76C51.2747 92.672 52.3733 91.7867 53.824 91.104L55.712 93.792C54.9867 94.1333 54.432 94.592 54.048 95.168C53.6853 95.7227 53.504 96.416 53.504 97.248C53.504 97.888 53.6533 98.4533 53.952 98.944C54.2507 99.4133 54.6773 99.7867 55.232 100.064C55.7867 100.32 56.4267 100.448 57.152 100.448C58.0693 100.448 58.8373 100.256 59.456 99.872C60.0747 99.488 60.5653 98.9973 60.928 98.4L63.744 101.472C63.3173 101.984 62.7627 102.453 62.08 102.88C61.3973 103.307 60.6293 103.659 59.776 103.936C58.9227 104.192 58.016 104.32 57.056 104.32ZM85.2133 104.32C84.1039 104.32 83.1013 104.085 82.2053 103.616C81.3093 103.147 80.5946 102.507 80.0613 101.696C79.5279 100.885 79.2399 99.9787 79.1973 98.976V93.472C79.2399 92.4693 79.5279 91.5733 80.0613 90.784C80.6159 89.9733 81.3413 89.344 82.2373 88.896C83.1333 88.448 84.1253 88.224 85.2133 88.224C86.6426 88.224 87.9226 88.576 89.0533 89.28C90.1839 89.984 91.0693 90.944 91.7093 92.16C92.3706 93.376 92.7013 94.752 92.7013 96.288C92.7013 97.8027 92.3706 99.168 91.7093 100.384C91.0693 101.6 90.1839 102.56 89.0533 103.264C87.9226 103.968 86.6426 104.32 85.2133 104.32ZM84.5093 100.448C85.2773 100.448 85.9493 100.277 86.5253 99.936C87.1226 99.5733 87.5813 99.0827 87.9013 98.464C88.2426 97.824 88.4133 97.088 88.4133 96.256C88.4133 95.4453 88.2426 94.7307 87.9013 94.112C87.5813 93.472 87.1226 92.9813 86.5253 92.64C85.9279 92.2773 85.2453 92.096 84.4773 92.096C83.7093 92.096 83.0266 92.2773 82.4293 92.64C81.8533 92.9813 81.3946 93.472 81.0533 94.112C80.7333 94.7307 80.5733 95.4453 80.5733 96.256C80.5733 97.088 80.7333 97.824 81.0533 98.464C81.3946 99.0827 81.8639 99.5733 82.4613 99.936C83.0586 100.277 83.7413 100.448 84.5093 100.448ZM76.6373 104V80.864H80.8293V92.352L80.1253 96.064L80.7973 99.84V104H76.6373ZM95.4498 104V88.544H99.6418V104H95.4498ZM99.6418 95.456L98.0098 94.368C98.2018 92.4693 98.7564 90.976 99.6738 89.888C100.591 88.7787 101.914 88.224 103.642 88.224C104.388 88.224 105.06 88.352 105.658 88.608C106.255 88.8427 106.799 89.2373 107.29 89.792L104.666 92.8C104.431 92.544 104.143 92.352 103.802 92.224C103.482 92.096 103.108 92.032 102.682 92.032C101.786 92.032 101.05 92.32 100.474 92.896C99.9191 93.4507 99.6418 94.304 99.6418 95.456ZM108.762 104V88.544H112.986V104H108.762ZM110.874 86.048C110.192 86.048 109.626 85.824 109.178 85.376C108.73 84.9067 108.506 84.3307 108.506 83.648C108.506 82.9867 108.73 82.4213 109.178 81.952C109.626 81.4827 110.192 81.248 110.874 81.248C111.578 81.248 112.144 81.4827 112.57 81.952C113.018 82.4213 113.242 82.9867 113.242 83.648C113.242 84.3307 113.018 84.9067 112.57 85.376C112.144 85.824 111.578 86.048 110.874 86.048ZM127.1 104V95.136C127.1 94.2187 126.812 93.472 126.236 92.896C125.66 92.32 124.913 92.032 123.996 92.032C123.398 92.032 122.865 92.16 122.396 92.416C121.926 92.672 121.553 93.0347 121.276 93.504C121.02 93.9733 120.892 94.5173 120.892 95.136L119.26 94.304C119.26 93.088 119.516 92.032 120.028 91.136C120.561 90.2187 121.286 89.504 122.204 88.992C123.142 88.48 124.198 88.224 125.372 88.224C126.502 88.224 127.516 88.512 128.412 89.088C129.308 89.6427 130.012 90.3787 130.524 91.296C131.036 92.192 131.292 93.1627 131.292 94.208V104H127.1ZM116.7 104V88.544H120.892V104H116.7ZM141.133 110.848C139.49 110.848 138.039 110.549 136.781 109.952C135.522 109.376 134.519 108.555 133.773 107.488L136.429 104.832C137.026 105.536 137.687 106.069 138.413 106.432C139.159 106.816 140.055 107.008 141.101 107.008C142.402 107.008 143.426 106.677 144.173 106.016C144.941 105.355 145.325 104.437 145.325 103.264V99.392L146.029 96L145.357 92.608V88.544H149.517V103.2C149.517 104.736 149.154 106.069 148.429 107.2C147.725 108.352 146.743 109.248 145.485 109.888C144.226 110.528 142.775 110.848 141.133 110.848ZM140.941 103.584C139.554 103.584 138.306 103.253 137.197 102.592C136.087 101.909 135.213 100.981 134.573 99.808C133.954 98.6347 133.645 97.3227 133.645 95.872C133.645 94.4213 133.954 93.12 134.573 91.968C135.213 90.816 136.087 89.9093 137.197 89.248C138.306 88.5653 139.554 88.224 140.941 88.224C142.093 88.224 143.106 88.448 143.981 88.896C144.877 89.344 145.581 89.9627 146.093 90.752C146.605 91.52 146.882 92.4267 146.925 93.472V98.336C146.882 99.36 146.594 100.277 146.061 101.088C145.549 101.877 144.845 102.496 143.949 102.944C143.074 103.371 142.071 103.584 140.941 103.584ZM141.773 99.776C142.541 99.776 143.202 99.616 143.757 99.296C144.333 98.9547 144.781 98.496 145.101 97.92C145.421 97.3227 145.581 96.6507 145.581 95.904C145.581 95.136 145.421 94.464 145.101 93.888C144.781 93.312 144.333 92.864 143.757 92.544C143.202 92.2027 142.541 92.032 141.773 92.032C141.005 92.032 140.333 92.2027 139.757 92.544C139.181 92.864 138.733 93.3227 138.413 93.92C138.093 94.496 137.933 95.1573 137.933 95.904C137.933 96.6293 138.093 97.2907 138.413 97.888C138.733 98.464 139.181 98.9227 139.757 99.264C140.333 99.6053 141.005 99.776 141.773 99.776ZM159.45 104V88.544H163.674V104H159.45ZM161.562 86.048C160.879 86.048 160.314 85.824 159.866 85.376C159.418 84.9067 159.194 84.3307 159.194 83.648C159.194 82.9867 159.418 82.4213 159.866 81.952C160.314 81.4827 160.879 81.248 161.562 81.248C162.266 81.248 162.831 81.4827 163.258 81.952C163.706 82.4213 163.93 82.9867 163.93 83.648C163.93 84.3307 163.706 84.9067 163.258 85.376C162.831 85.824 162.266 86.048 161.562 86.048ZM173.915 104.32C172.486 104.32 171.206 103.968 170.075 103.264C168.945 102.56 168.049 101.6 167.387 100.384C166.747 99.168 166.427 97.8027 166.427 96.288C166.427 94.752 166.747 93.376 167.387 92.16C168.049 90.944 168.934 89.984 170.043 89.28C171.174 88.576 172.465 88.224 173.915 88.224C175.025 88.224 176.017 88.448 176.891 88.896C177.787 89.344 178.502 89.9733 179.035 90.784C179.59 91.5733 179.889 92.4693 179.931 93.472V98.976C179.889 99.9787 179.601 100.885 179.067 101.696C178.534 102.507 177.819 103.147 176.923 103.616C176.027 104.085 175.025 104.32 173.915 104.32ZM174.619 100.448C175.409 100.448 176.091 100.277 176.667 99.936C177.265 99.5733 177.723 99.0827 178.043 98.464C178.385 97.824 178.555 97.088 178.555 96.256C178.555 95.4453 178.385 94.7307 178.043 94.112C177.723 93.472 177.265 92.9813 176.667 92.64C176.091 92.2773 175.419 92.096 174.651 92.096C173.862 92.096 173.169 92.2773 172.571 92.64C171.995 93.0027 171.537 93.4933 171.195 94.112C170.875 94.7307 170.715 95.4453 170.715 96.256C170.715 97.088 170.875 97.824 171.195 98.464C171.537 99.0827 172.006 99.5733 172.603 99.936C173.201 100.277 173.873 100.448 174.619 100.448ZM182.491 104H178.331V99.84L179.003 96.064L178.299 92.352V80.864H182.491V104ZM193.592 104.32C191.97 104.32 190.53 103.979 189.272 103.296C188.013 102.592 187.01 101.632 186.264 100.416C185.538 99.2 185.176 97.8133 185.176 96.256C185.176 94.72 185.528 93.3547 186.232 92.16C186.957 90.944 187.938 89.984 189.176 89.28C190.413 88.5547 191.789 88.192 193.304 88.192C194.797 88.192 196.109 88.5333 197.24 89.216C198.392 89.8773 199.288 90.7947 199.928 91.968C200.589 93.12 200.92 94.432 200.92 95.904C200.92 96.1813 200.898 96.4693 200.856 96.768C200.834 97.0453 200.781 97.3653 200.696 97.728L187.704 97.76V94.624L198.744 94.592L197.048 95.904C197.005 94.9867 196.834 94.2187 196.536 93.6C196.258 92.9813 195.842 92.512 195.288 92.192C194.754 91.8507 194.093 91.68 193.304 91.68C192.472 91.68 191.746 91.872 191.128 92.256C190.509 92.6187 190.029 93.1413 189.688 93.824C189.368 94.4853 189.208 95.2747 189.208 96.192C189.208 97.1307 189.378 97.952 189.72 98.656C190.082 99.3387 190.594 99.872 191.256 100.256C191.917 100.619 192.685 100.8 193.56 100.8C194.349 100.8 195.064 100.672 195.704 100.416C196.344 100.139 196.898 99.7333 197.368 99.2L199.832 101.664C199.085 102.539 198.168 103.2 197.08 103.648C196.013 104.096 194.85 104.32 193.592 104.32ZM209.976 104.32C208.568 104.32 207.299 103.968 206.168 103.264C205.038 102.56 204.152 101.6 203.512 100.384C202.872 99.168 202.552 97.8027 202.552 96.288C202.552 94.752 202.872 93.376 203.512 92.16C204.152 90.944 205.038 89.984 206.168 89.28C207.299 88.576 208.568 88.224 209.976 88.224C211.086 88.224 212.078 88.448 212.952 88.896C213.827 89.344 214.52 89.9733 215.032 90.784C215.566 91.5733 215.854 92.4693 215.896 93.472V99.04C215.854 100.064 215.566 100.971 215.032 101.76C214.52 102.549 213.827 103.179 212.952 103.648C212.078 104.096 211.086 104.32 209.976 104.32ZM210.744 100.448C211.918 100.448 212.867 100.064 213.592 99.296C214.318 98.5067 214.68 97.4933 214.68 96.256C214.68 95.4453 214.51 94.7307 214.168 94.112C213.848 93.472 213.39 92.9813 212.792 92.64C212.216 92.2773 211.534 92.096 210.744 92.096C209.976 92.096 209.294 92.2773 208.696 92.64C208.12 92.9813 207.662 93.472 207.32 94.112C207 94.7307 206.84 95.4453 206.84 96.256C206.84 97.088 207 97.824 207.32 98.464C207.662 99.0827 208.12 99.5733 208.696 99.936C209.294 100.277 209.976 100.448 210.744 100.448ZM214.456 104V99.84L215.128 96.064L214.456 92.352V88.544H218.616V104H214.456ZM227.637 104.352C226.762 104.352 225.898 104.235 225.045 104C224.213 103.765 223.445 103.445 222.741 103.04C222.037 102.613 221.429 102.101 220.917 101.504L223.413 98.976C223.946 99.5733 224.565 100.021 225.269 100.32C225.973 100.619 226.751 100.768 227.605 100.768C228.287 100.768 228.799 100.672 229.141 100.48C229.503 100.288 229.685 100 229.685 99.616C229.685 99.1893 229.493 98.8587 229.109 98.624C228.746 98.3893 228.266 98.1973 227.669 98.048C227.071 97.8773 226.442 97.696 225.781 97.504C225.141 97.2907 224.522 97.024 223.925 96.704C223.327 96.3627 222.837 95.904 222.453 95.328C222.09 94.7307 221.909 93.9627 221.909 93.024C221.909 92.0427 222.143 91.1893 222.613 90.464C223.103 89.7387 223.797 89.1733 224.693 88.768C225.589 88.3627 226.645 88.16 227.861 88.16C229.141 88.16 230.293 88.384 231.317 88.832C232.362 89.28 233.226 89.952 233.909 90.848L231.381 93.376C230.911 92.8 230.378 92.384 229.781 92.128C229.205 91.872 228.575 91.744 227.893 91.744C227.274 91.744 226.794 91.84 226.453 92.032C226.133 92.224 225.973 92.4907 225.973 92.832C225.973 93.216 226.154 93.5147 226.517 93.728C226.901 93.9413 227.391 94.1333 227.989 94.304C228.586 94.4533 229.205 94.6347 229.845 94.848C230.506 95.04 231.125 95.3173 231.701 95.68C232.298 96.0427 232.778 96.5227 233.141 97.12C233.525 97.7173 233.717 98.4853 233.717 99.424C233.717 100.939 233.173 102.144 232.085 103.04C230.997 103.915 229.514 104.352 227.637 104.352ZM242.794 104V88.544H246.986V104H242.794ZM252.874 104V94.88C252.874 93.984 252.586 93.2907 252.01 92.8C251.455 92.288 250.762 92.032 249.93 92.032C249.375 92.032 248.874 92.1493 248.426 92.384C247.978 92.5973 247.626 92.9173 247.37 93.344C247.114 93.7707 246.986 94.2827 246.986 94.88L245.354 94.08C245.354 92.8853 245.61 91.8507 246.122 90.976C246.655 90.1013 247.37 89.4293 248.266 88.96C249.162 88.4693 250.175 88.224 251.306 88.224C252.372 88.224 253.343 88.4693 254.218 88.96C255.092 89.4293 255.786 90.1013 256.298 90.976C256.81 91.8293 257.066 92.864 257.066 94.08V104H252.874ZM262.954 104V94.88C262.954 93.984 262.666 93.2907 262.09 92.8C261.535 92.288 260.842 92.032 260.01 92.032C259.476 92.032 258.975 92.1493 258.506 92.384C258.058 92.5973 257.706 92.9173 257.45 93.344C257.194 93.7707 257.066 94.2827 257.066 94.88L254.666 94.304C254.751 93.0667 255.082 92 255.658 91.104C256.234 90.1867 256.991 89.4827 257.93 88.992C258.868 88.48 259.914 88.224 261.066 88.224C262.218 88.224 263.252 88.4693 264.17 88.96C265.087 89.4293 265.812 90.112 266.346 91.008C266.879 91.904 267.146 92.9707 267.146 94.208V104H262.954ZM277.808 104.32C276.25 104.32 274.842 103.968 273.584 103.264C272.346 102.539 271.354 101.568 270.608 100.352C269.882 99.1147 269.52 97.7387 269.52 96.224C269.52 94.7093 269.882 93.3547 270.608 92.16C271.333 90.944 272.325 89.984 273.584 89.28C274.842 88.5547 276.24 88.192 277.776 88.192C279.354 88.192 280.762 88.5547 282 89.28C283.258 89.984 284.25 90.944 284.976 92.16C285.701 93.3547 286.064 94.7093 286.064 96.224C286.064 97.7387 285.701 99.1147 284.976 100.352C284.25 101.568 283.258 102.539 282 103.264C280.762 103.968 279.365 104.32 277.808 104.32ZM277.776 100.416C278.565 100.416 279.258 100.245 279.856 99.904C280.474 99.5413 280.944 99.0507 281.264 98.432C281.605 97.792 281.776 97.0667 281.776 96.256C281.776 95.4453 281.605 94.7307 281.264 94.112C280.922 93.4933 280.453 93.0133 279.856 92.672C279.258 92.3093 278.565 92.128 277.776 92.128C277.008 92.128 276.325 92.3093 275.728 92.672C275.13 93.0133 274.661 93.4933 274.32 94.112C273.978 94.7307 273.808 95.4453 273.808 96.256C273.808 97.0667 273.978 97.792 274.32 98.432C274.661 99.0507 275.13 99.5413 275.728 99.904C276.325 100.245 277.008 100.416 277.776 100.416ZM288.762 104V88.544H292.954V104H288.762ZM292.954 95.456L291.322 94.368C291.514 92.4693 292.069 90.976 292.986 89.888C293.904 88.7787 295.226 88.224 296.954 88.224C297.701 88.224 298.373 88.352 298.97 88.608C299.568 88.8427 300.112 89.2373 300.602 89.792L297.978 92.8C297.744 92.544 297.456 92.352 297.114 92.224C296.794 92.096 296.421 92.032 295.994 92.032C295.098 92.032 294.362 92.32 293.786 92.896C293.232 93.4507 292.954 94.304 292.954 95.456ZM309.029 104.32C307.408 104.32 305.968 103.979 304.709 103.296C303.451 102.592 302.448 101.632 301.701 100.416C300.976 99.2 300.613 97.8133 300.613 96.256C300.613 94.72 300.965 93.3547 301.669 92.16C302.395 90.944 303.376 89.984 304.613 89.28C305.851 88.5547 307.227 88.192 308.741 88.192C310.235 88.192 311.547 88.5333 312.677 89.216C313.829 89.8773 314.725 90.7947 315.365 91.968C316.027 93.12 316.357 94.432 316.357 95.904C316.357 96.1813 316.336 96.4693 316.293 96.768C316.272 97.0453 316.219 97.3653 316.133 97.728L303.141 97.76V94.624L314.181 94.592L312.485 95.904C312.443 94.9867 312.272 94.2187 311.973 93.6C311.696 92.9813 311.28 92.512 310.725 92.192C310.192 91.8507 309.531 91.68 308.741 91.68C307.909 91.68 307.184 91.872 306.565 92.256C305.947 92.6187 305.467 93.1413 305.125 93.824C304.805 94.4853 304.645 95.2747 304.645 96.192C304.645 97.1307 304.816 97.952 305.157 98.656C305.52 99.3387 306.032 99.872 306.693 100.256C307.355 100.619 308.123 100.8 308.997 100.8C309.787 100.8 310.501 100.672 311.141 100.416C311.781 100.139 312.336 99.7333 312.805 99.2L315.269 101.664C314.523 102.539 313.605 103.2 312.517 103.648C311.451 104.096 310.288 104.32 309.029 104.32ZM332.496 104.32C330.917 104.32 329.498 103.968 328.24 103.264C326.981 102.56 325.989 101.6 325.264 100.384C324.538 99.168 324.176 97.8027 324.176 96.288C324.176 94.752 324.538 93.376 325.264 92.16C325.989 90.944 326.981 89.984 328.24 89.28C329.52 88.5547 330.938 88.192 332.496 88.192C333.712 88.192 334.832 88.416 335.856 88.864C336.88 89.312 337.765 89.952 338.512 90.784L335.824 93.504C335.418 93.056 334.928 92.7147 334.352 92.48C333.797 92.2453 333.178 92.128 332.496 92.128C331.728 92.128 331.034 92.3093 330.416 92.672C329.818 93.0133 329.338 93.4933 328.976 94.112C328.634 94.7093 328.464 95.424 328.464 96.256C328.464 97.0667 328.634 97.792 328.976 98.432C329.338 99.0507 329.818 99.5413 330.416 99.904C331.034 100.245 331.728 100.416 332.496 100.416C333.2 100.416 333.829 100.299 334.384 100.064C334.96 99.808 335.45 99.4453 335.856 98.976L338.576 101.696C337.786 102.549 336.88 103.2 335.856 103.648C334.832 104.096 333.712 104.32 332.496 104.32ZM347.2 104V80.864H351.392V104H347.2ZM362.498 104.32C360.877 104.32 359.437 103.979 358.178 103.296C356.919 102.592 355.917 101.632 355.17 100.416C354.445 99.2 354.082 97.8133 354.082 96.256C354.082 94.72 354.434 93.3547 355.138 92.16C355.863 90.944 356.845 89.984 358.082 89.28C359.319 88.5547 360.695 88.192 362.21 88.192C363.703 88.192 365.015 88.5333 366.146 89.216C367.298 89.8773 368.194 90.7947 368.834 91.968C369.495 93.12 369.826 94.432 369.826 95.904C369.826 96.1813 369.805 96.4693 369.762 96.768C369.741 97.0453 369.687 97.3653 369.602 97.728L356.61 97.76V94.624L367.65 94.592L365.954 95.904C365.911 94.9867 365.741 94.2187 365.442 93.6C365.165 92.9813 364.749 92.512 364.194 92.192C363.661 91.8507 362.999 91.68 362.21 91.68C361.378 91.68 360.653 91.872 360.034 92.256C359.415 92.6187 358.935 93.1413 358.594 93.824C358.274 94.4853 358.114 95.2747 358.114 96.192C358.114 97.1307 358.285 97.952 358.626 98.656C358.989 99.3387 359.501 99.872 360.162 100.256C360.823 100.619 361.591 100.8 362.466 100.8C363.255 100.8 363.97 100.672 364.61 100.416C365.25 100.139 365.805 99.7333 366.274 99.2L368.738 101.664C367.991 102.539 367.074 103.2 365.986 103.648C364.919 104.096 363.757 104.32 362.498 104.32ZM378.883 104.32C377.475 104.32 376.205 103.968 375.075 103.264C373.944 102.56 373.059 101.6 372.419 100.384C371.779 99.168 371.459 97.8027 371.459 96.288C371.459 94.752 371.779 93.376 372.419 92.16C373.059 90.944 373.944 89.984 375.075 89.28C376.205 88.576 377.475 88.224 378.883 88.224C379.992 88.224 380.984 88.448 381.859 88.896C382.733 89.344 383.427 89.9733 383.939 90.784C384.472 91.5733 384.76 92.4693 384.803 93.472V99.04C384.76 100.064 384.472 100.971 383.939 101.76C383.427 102.549 382.733 103.179 381.859 103.648C380.984 104.096 379.992 104.32 378.883 104.32ZM379.651 100.448C380.824 100.448 381.773 100.064 382.499 99.296C383.224 98.5067 383.587 97.4933 383.587 96.256C383.587 95.4453 383.416 94.7307 383.075 94.112C382.755 93.472 382.296 92.9813 381.699 92.64C381.123 92.2773 380.44 92.096 379.651 92.096C378.883 92.096 378.2 92.2773 377.603 92.64C377.027 92.9813 376.568 93.472 376.227 94.112C375.907 94.7307 375.747 95.4453 375.747 96.256C375.747 97.088 375.907 97.824 376.227 98.464C376.568 99.0827 377.027 99.5733 377.603 99.936C378.2 100.277 378.883 100.448 379.651 100.448ZM383.363 104V99.84L384.035 96.064L383.363 92.352V88.544H387.523V104H383.363ZM391.231 104V88.544H395.423V104H391.231ZM395.423 95.456L393.791 94.368C393.983 92.4693 394.538 90.976 395.455 89.888C396.372 88.7787 397.695 88.224 399.423 88.224C400.17 88.224 400.842 88.352 401.439 88.608C402.036 88.8427 402.58 89.2373 403.071 89.792L400.447 92.8C400.212 92.544 399.924 92.352 399.583 92.224C399.263 92.096 398.89 92.032 398.463 92.032C397.567 92.032 396.831 92.32 396.255 92.896C395.7 93.4507 395.423 94.304 395.423 95.456ZM404.544 104V80.864H408.736V104H404.544ZM417.314 104.128L410.85 88.544H415.394L419.682 100.448H418.146L422.594 88.544H427.17L420.29 104.096L417.314 104.128ZM413.026 110.464L417.73 100.512L420.29 104.096L417.474 110.464H413.026ZM429.986 104.32C429.218 104.32 428.589 104.064 428.098 103.552C427.607 103.04 427.362 102.411 427.362 101.664C427.362 100.917 427.607 100.288 428.098 99.776C428.589 99.264 429.218 99.008 429.986 99.008C430.733 99.008 431.351 99.264 431.842 99.776C432.333 100.288 432.578 100.917 432.578 101.664C432.578 102.411 432.333 103.04 431.842 103.552C431.351 104.064 430.733 104.32 429.986 104.32Z" fill="white"/>
<defs>
<linearGradient id="paint0_linear_1_70" x1="0" y1="0" x2="973.39" y2="637.818" gradientUnits="userSpaceOnUse">
<stop stop-color="#2B59FF"/>
<stop offset="1" stop-color="#BB2BFF"/>
</linearGradient>
</defs>
</svg>
